<svg viewBox="0 0 125 75" xmlns="http://www.w3.org/2000/svg" fill-rule="evenodd" clip-rule="evenodd" stroke-linejoin="round" stroke-miterlimit="2" role="img" aria-labelledby="logo-title" class="absolute top-20 right-20 w-40">
      <g transform="scale(.14752 .126)">
        <path d="M0 0h841.89v595.28H0z" fill="none"></path>
        <clipPath id="a">
          <path d="M0 0h841.89v595.28H0z"></path>
        </clipPath>
        <g clip-path="url(#a)" fill-rule="nonzero">
          <path d="M319.425 568.782v-54.019a23.967 28.064 0 0 0-.693-6.164 19.672 23.035 0 0 0-2.355-5.678 12.884 15.086 0 0 0-3.74-4.055 9.698 11.355 0 0 0-5.404-1.622 11.914 13.95 0 0 0-5.68 1.622 25.353 29.686 0 0 0-4.849 4.055 30.478 35.688 0 0 0-3.463 4.867 8.035 9.409 0 0 0-1.524 4.055v56.939h-12.191v-81.434h11.637v11.193a21.335 24.982 0 0 1 5.957-7.624 26.738 31.308 0 0 1 5.542-3.893 14.685 17.195 0 0 1 6.372-1.622c4.018 0 7.343.81 10.252 2.433 2.77 1.784 5.126 3.893 6.927 6.65a27.154 31.795 0 0 1 4.156 8.923 30.478 35.688 0 0 1 1.247 9.895v55.479h-12.191zM389.11 568.782v-54.019a23.967 28.064 0 0 0-.693-6.164 19.672 23.035 0 0 0-2.355-5.678 12.884 15.086 0 0 0-3.74-4.055 9.698 11.355 0 0 0-5.404-1.622 11.914 13.95 0 0 0-5.68 1.622 25.353 29.686 0 0 0-4.849 4.055 30.478 35.688 0 0 0-3.463 4.867 8.035 9.409 0 0 0-1.524 4.055v56.939h-12.191v-81.434h11.637v11.193a21.335 24.982 0 0 1 5.957-7.624 26.738 31.308 0 0 1 5.542-3.893 14.685 17.195 0 0 1 6.372-1.622c4.018 0 7.343.81 10.252 2.433 2.77 1.784 5.126 3.893 6.927 6.65a27.154 31.795 0 0 1 4.156 8.923 30.478 35.688 0 0 1 1.247 9.895v55.479H389.11zM472.649 525.956a48.488 56.777 0 0 1-6.235 28.875 29.647 34.715 0 0 1-8.866 11.356 23.136 27.09 0 0 1-13.715 4.542 23.552 27.577 0 0 1-13.993-4.542 27.708 32.444 0 0 1-8.728-11.356 57.909 67.807 0 0 1-5.957-28.875 42.116 49.314 0 0 1 6.789-25.955 31.864 37.31 0 0 1 8.866-10.382 23.136 27.09 0 0 1 13.023-4.217c5.403 0 9.836 1.46 13.576 4.217a30.478 35.688 0 0 1 9.005 10.382 40.453 47.368 0 0 1 6.235 25.955zm-12.607 0a40.869 47.854 0 0 0-3.464-18.168 20.365 23.846 0 0 0-4.987-7.462 11.499 13.464 0 0 0-7.758-3.082 11.776 13.789 0 0 0-7.62 2.92 18.426 21.575 0 0 0-4.987 7.3 41.146 48.179 0 0 0-2.771 28.712 33.942 39.744 0 0 0 2.494 10.869c1.108 3.406 2.77 6.164 4.848 8.435a11.083 12.977 0 0 0 8.036 3.407 11.499 13.464 0 0 0 8.035-3.407 20.92 24.495 0 0 0 4.987-8.435 31.864 37.31 0 0 0 2.494-10.707 70.932 83.056 0 0 0 .693-10.382zM513.101 568.782h-13.715l-21.89-81.434h13.162l15.793 66.348 15.932-66.348h12.607l-21.889 81.434zM580.18 568.782v-11.193a28.123 32.93 0 0 1-12.052 11.517 17.317 20.277 0 0 1-7.065 1.623 22.166 25.955 0 0 1-15.517-6.165 18.01 21.088 0 0 1-5.818-16.708c0-3.569.831-6.813 2.632-9.896a30.201 35.364 0 0 1 6.65-7.786 41.007 48.017 0 0 1 8.728-5.84 67.468 79 0 0 1 9.005-3.406l12.884-3.245v-4.38a15.516 18.168 0 0 0-3.464-12.004c-2.355-3.407-5.818-5.029-10.529-5.029a17.04 19.953 0 0 0-4.987.974 59.017 69.105 0 0 0-12.468 6.65l-3.88-10.868 2.91-1.785a55.97 65.536 0 0 1 12.468-4.866 38.237 44.772 0 0 1 7.897-.973c7.342 0 13.161 2.27 17.456 6.975 4.294 4.704 6.373 11.355 6.373 20.115v56.29H580.18zm-.553-40.88l-10.53 2.596A30.478 35.688 0 0 0 557.6 536.5a16.209 18.98 0 0 0-4.017 4.867 8.312 9.733 0 0 0-1.663 5.678c0 4.055 1.108 7.137 3.325 9.408a10.945 12.815 0 0 0 7.62 3.407 14.685 17.195 0 0 0 5.818-1.46 24.383 28.55 0 0 0 5.126-3.731 19.395 22.71 0 0 0 5.819-9.733v-17.033zM641.86 567.97l-2.079.812-3.048.973-3.463.65-3.464.324a18.564 21.737 0 0 1-7.758-1.623 13.854 16.222 0 0 1-8.035-10.382 18.01 21.088 0 0 1-.97-7.137V499.19h-11.637v-11.842h11.637v-22.061h12.33v22.061h13.993v11.842h-13.993v50.937a15.24 17.844 0 0 0 .277 2.92 6.65 7.786 0 0 0 .97 2.92c.416.81.831 1.622 1.524 2.109a4.849 5.678 0 0 0 2.494.81 13.715 16.06 0 0 0 4.294-.973 9.56 11.193 0 0 0 3.048-1.46l3.88 11.518zM736.814 525.956a48.488 56.777 0 0 1-6.235 28.875 29.647 34.715 0 0 1-8.866 11.356 23.136 27.09 0 0 1-13.715 4.542 23.552 27.577 0 0 1-13.993-4.542 27.708 32.444 0 0 1-8.728-11.356 57.909 67.807 0 0 1-5.957-28.875 42.116 49.314 0 0 1 6.789-25.955 31.864 37.31 0 0 1 8.866-10.382 23.136 27.09 0 0 1 13.023-4.217c5.403 0 9.836 1.46 13.576 4.217a30.478 35.688 0 0 1 9.005 10.382 40.453 47.368 0 0 1 6.235 25.955zm-12.607 0a40.869 47.854 0 0 0-3.464-18.168 20.365 23.846 0 0 0-4.987-7.462 11.499 13.464 0 0 0-7.758-3.082 11.776 13.789 0 0 0-7.62 2.92 18.426 21.575 0 0 0-4.987 7.3 41.146 48.179 0 0 0-2.771 28.712 33.942 39.744 0 0 0 2.494 10.869c1.108 3.406 2.77 6.164 4.848 8.435a11.083 12.977 0 0 0 8.036 3.407 11.499 13.464 0 0 0 8.035-3.407 20.92 24.495 0 0 0 4.987-8.435 31.864 37.31 0 0 0 2.494-10.707 70.932 83.056 0 0 0 .693-10.382zM791.009 568.782v-54.019a23.967 28.064 0 0 0-.693-6.164 19.672 23.035 0 0 0-2.355-5.678 12.884 15.086 0 0 0-3.74-4.055 9.698 11.355 0 0 0-5.404-1.622 11.914 13.95 0 0 0-5.68 1.622 25.353 29.686 0 0 0-4.849 4.055 30.478 35.688 0 0 0-3.463 4.867 8.035 9.409 0 0 0-1.524 4.055v56.939H751.11v-81.434h11.637v11.193a21.335 24.982 0 0 1 5.957-7.624 26.738 31.308 0 0 1 5.542-3.893 14.685 17.195 0 0 1 6.372-1.622c4.018 0 7.343.81 10.252 2.433 2.77 1.784 5.126 3.893 6.927 6.65a27.154 31.795 0 0 1 4.156 8.923 30.478 35.688 0 0 1 1.247 9.895v55.479H791.01z" fill="#7fbd27"></path>
          <path d="M169.87 315.873c-9.07 8.7-27.792 27.7-54.648 27.7-49.836 0-63.352-29.589-63.352-104.96V6.13C51.47 2.748 49.13.002 46.25.002H5.227A5.233 6.127 0 0 0 .001 6.129v237.922c0 .405.034.714.108.944 0 59.378.61 153.972 111.67 153.972 32.136 0 56.098-16.343 60.87-21.454 2.529-2.699 2.84-6.977 2.84-8.715v-50.21c0-5.088-3.524-4.715-5.619-2.715M292.967 161.209c9.07-8.699 27.792-27.7 54.655-27.7 49.842 0 63.345 29.59 63.345 104.96v147.907c.414 3.365 2.752 6.111 5.64 6.111h41.017a5.22 6.112 0 0 0 5.219-6.111V233.032a2.508 2.937 0 0 0-.108-.945c0-59.361-.597-153.955-111.676-153.955-32.13 0-56.092 16.326-60.858 21.438-2.528 2.714-2.847 6.976-2.847 8.715v50.21c0 5.087 3.518 4.73 5.613 2.714M256.626 54.151a5.22 6.112 0 0 1-5.226 6.112h-41.017a5.22 6.112 0 0 1-5.233-6.112V6.124c0-3.381 2.345-6.12 5.233-6.12H251.4c2.88 0 5.226 2.739 5.226 6.12V54.15zM256.626 386.377c0 3.365-2.345 6.111-5.226 6.111h-41.017a5.233 6.127 0 0 1-5.233-6.111V95.745c0-3.381 2.345-6.128 5.233-6.128H251.4c2.88 0 5.226 2.747 5.226 6.128v290.632zM549.38 386.377a5.22 6.112 0 0 1-5.213 6.112h-40.996a5.247 6.143 0 0 1-5.247-6.112V6.127c0-3.38 2.36-6.127 5.247-6.127h40.996c2.874 0 5.213 2.747 5.213 6.128v380.249zM656.173 78.226h52.032c7.083 0 6.724 4.508 4.182 8.358-11.767 17.795-40.325 56.551-61.616 88.419-30.517 45.67-32.87 46.48-2.671 94.332 25.589 40.542 60.803 95.99 74.407 117.198 2.481 3.81.963 5.985-3.063 5.985H663.52c-5.084 0-6.555-2.294-8.724-6-15.096-25.748-46.284-78.927-68.212-116.39-19.671-33.653-22.186-57.456 1.647-94.8 34.34-53.837 44.989-69.402 59.19-91.102 2.888-4.42 4.731-6 8.751-6" fill="#373737"></path>
          <path d="M819.107 595.484v-7.92h11.178V464.474h-11.178v-7.937h22.918v138.946h-22.918zM205.086 595.484V456.538h22.925v7.937H216.84v123.088h11.17v7.921h-22.924zM249.327 487.352h12.194v81.434h-12.194zm403.504 0h12.194v81.434h-12.194z" fill="#7fbd27"></path>
        </g>
      </g>
    </svg>