<?xml version="1.0" encoding="UTF-8" standalone="no"?>
<!-- Created with Inkscape (http://www.inkscape.org/) -->

<svg
   width="230"
   height="60"
   viewBox="0 0 60.854165 15.875002"
   version="1.1"
   id="svg1"
   inkscape:version="1.3.2 (091e20e, 2023-11-25, custom)"
   sodipodi:docname="shibuya.svg"
   xmlns:inkscape="http://www.inkscape.org/namespaces/inkscape"
   xmlns:sodipodi="http://sodipodi.sourceforge.net/DTD/sodipodi-0.dtd"
   xmlns="http://www.w3.org/2000/svg"
   xmlns:svg="http://www.w3.org/2000/svg">
  <sodipodi:namedview
     id="namedview1"
     pagecolor="#ffffff"
     bordercolor="#666666"
     borderopacity="1.0"
     inkscape:showpageshadow="2"
     inkscape:pageopacity="0.0"
     inkscape:pagecheckerboard="0"
     inkscape:deskcolor="#d1d1d1"
     inkscape:document-units="px"
     inkscape:zoom="2.132702"
     inkscape:cx="85.10331"
     inkscape:cy="13.832218"
     inkscape:window-width="2050"
     inkscape:window-height="1221"
     inkscape:window-x="2592"
     inkscape:window-y="47"
     inkscape:window-maximized="0"
     inkscape:current-layer="layer1" />
  <defs
     id="defs1" />
  <g
     inkscape:label="Ebene 1"
     inkscape:groupmode="layer"
     id="layer1"
     transform="translate(-21.46426,-10.60563)">
    <g
       id="g6"
       transform="translate(3.2506798,2.9287631)">
      <g
         id="g5">
        <path
           d="m 33.40655,16.974308 v -6.34649 h 1.420194 v 2.60073 h 4.47361 v -2.60073 h 1.420193 v 6.34649 h -1.420193 v -2.591853 h -4.47361 v 2.591853 z m 8.556673,0 v -6.34649 h 1.420194 v 6.34649 z m 2.662857,0 v -6.328737 l 5.343479,-0.01775 c 0.704179,0 1.224917,0.147937 1.562213,0.44381 0.343213,0.289956 0.51482,0.727849 0.51482,1.313679 0,0.58583 -0.195277,1.014847 -0.58583,1.287051 0.260369,0.142019 0.452687,0.331378 0.576954,0.568077 0.124267,0.230782 0.1864,0.529614 0.1864,0.896497 0,0.597665 -0.171607,1.05331 -0.51482,1.366936 -0.337296,0.307709 -0.858034,0.461563 -1.562213,0.461563 z m 5.174831,-5.210335 h -3.754637 v 1.420194 h 3.754637 c 0.53849,0 0.807735,-0.242617 0.807735,-0.727849 0,-0.461563 -0.269245,-0.692345 -0.807735,-0.692345 z m 0.177524,2.556349 h -3.932161 v 1.508955 h 3.932161 c 0.53849,0 0.807735,-0.254451 0.807735,-0.763354 0,-0.497067 -0.269245,-0.745601 -0.807735,-0.745601 z m 5.787285,2.698368 c -0.645005,0 -1.153907,-0.08285 -1.526708,-0.248534 -0.372801,-0.171607 -0.639087,-0.429017 -0.798859,-0.772231 -0.159772,-0.343213 -0.239658,-0.775189 -0.239658,-1.295926 v -4.074181 h 1.420194 v 4.074181 c 0,0.449728 0.103556,0.757437 0.310667,0.923126 0.213029,0.159771 0.571037,0.239657 1.074022,0.239657 h 1.713108 c 0.502985,0 0.858034,-0.07989 1.065146,-0.239657 0.213029,-0.165689 0.319543,-0.473398 0.319543,-0.923126 v -4.074181 h 1.420194 v 4.074181 c 0,0.520737 -0.07989,0.952713 -0.239658,1.295926 -0.159771,0.343214 -0.426058,0.600624 -0.798859,0.772231 -0.372801,0.165689 -0.881703,0.248534 -1.526708,0.248534 z m 8.743069,-0.04438 v -2.263435 l -3.364084,-4.083057 h 1.757489 l 2.316691,2.875892 2.307815,-2.875892 h 1.75749 l -3.346332,4.074181 v 2.272309 z m 3.399578,0 2.85814,-6.34649 h 2.192424 l 2.858139,6.346488 H 74.27261 L 73.669027,15.634001 H 70.05641 l -0.603582,1.340307 z m 2.662863,-2.494216 h 2.582977 l -1.233793,-2.742749 h -0.115391 z"
           id="text1"
           style="font-size:8.87621px;line-height:1.25;font-family:'Zen Dots';-inkscape-font-specification:'Zen Dots, Normal';stroke-width:0.264583"
           aria-label="SHIBUYA"
           sodipodi:nodetypes="ccccccccccccccccccccccsccscccsccssssccsssscssccscsscsccsscsscccccccccccccccccccccccc" />
        <path
           d="m 21.689414,20.207783 v -1.721766 l 7.6155,0.01328 c 0.3885,0 0.68429,-0.08829 0.887371,-0.264888 0.211908,-0.185419 0.317864,-0.48121 0.317864,-0.88737 0,-0.40616 -0.105952,-0.697537 -0.317864,-0.874129 -0.203081,-0.185441 -0.498871,-0.278164 -0.887371,-0.278164 h -4.741477 c -0.980081,0 -1.743839,-0.233983 -2.291272,-0.70195 -0.538603,-0.476797 -0.807905,-1.174333 -0.807905,-2.092607 0,-0.918274 0.269302,-1.611396 0.807905,-2.079364 0.547433,-0.476796 1.311191,-0.715195 2.291272,-0.715195 h 7.443324 v 1.721767 l -7.218169,-0.01328 c -0.379673,0 -0.675462,0.08829 -0.887371,0.264887 -0.211911,0.167762 -0.317865,0.441478 -0.317865,0.821149 0,0.379671 0.105955,0.657804 0.317865,0.834393 0.211909,0.167762 0.507698,0.251643 0.887371,0.251643 h 4.741477 c 0.98008,0 1.739423,0.242814 2.278028,0.728441 0.547431,0.476795 0.821148,1.187576 0.821148,2.13234 0,0.935935 -0.273717,1.646714 -0.821148,2.132341 -0.538605,0.485626 -1.297948,0.72844 -2.278028,0.72844 z"
           style="font-size:8.87621px;line-height:1.25;font-family:'Zen Dots';-inkscape-font-specification:'Zen Dots, Normal';stroke-width:0.264583"
           id="path1" />
      </g>
      <text
         xml:space="preserve"
         style="font-style:normal;font-variant:normal;font-weight:normal;font-stretch:normal;font-size:3.23442px;line-height:1.25;font-family:'Agency FB';-inkscape-font-specification:'Agency FB, Normal';font-variant-ligatures:normal;font-variant-caps:normal;font-variant-numeric:normal;font-variant-east-asian:normal;stroke-width:0.264583"
         x="33.23896"
         y="20.04034"
         id="text2"><tspan
           sodipodi:role="line"
           id="tspan1"
           style="font-style:normal;font-variant:normal;font-weight:normal;font-stretch:normal;font-size:3.23442px;font-family:'Agency FB';-inkscape-font-specification:'Agency FB, Normal';font-variant-ligatures:normal;font-variant-caps:normal;font-variant-numeric:normal;font-variant-east-asian:normal;stroke-width:0.264583"
           x="33.23896"
           y="20.04034">Framework Agnostic Development System</tspan></text>
    </g>
  </g>
</svg>
